<?xml version="1.0" encoding="iso-8859-1"?>
<!-- Generator: Adobe Illustrator 19.0.0, SVG Export Plug-In . SVG Version: 6.00 Build 0)  -->
<svg version="1.1" id="Capa_1" xmlns="http://www.w3.org/2000/svg" xmlns:xlink="http://www.w3.org/1999/xlink" x="0px" y="0px"
	 viewBox="0 0 468.293 468.293" style="enable-background:new 0 0 468.293 468.293;" xml:space="preserve">
<path style="fill:#2D92BA;" d="M433.951,468.293H34.341c-10.345,0-18.732-8.386-18.732-18.732V18.732C15.61,8.386,23.996,0,34.341,0
	h345.82c28.322,28.322,44.2,44.2,72.522,72.522v377.039C452.683,459.906,444.296,468.293,433.951,468.293z"/>
<path style="fill:#E0E5E8;" d="M322.648,177.518H118.191c-10.345,0-18.732-8.386-18.732-18.732V0h241.92v158.787
	C341.38,169.132,332.994,177.518,322.648,177.518z"/>
<path style="fill:#647989;" d="M281.782,151.198h-43.707c-3.448,0-6.244-2.796-6.244-6.244V32.564c0-3.448,2.796-6.244,6.244-6.244
	h43.707c3.448,0,6.244,2.795,6.244,6.244v112.39C288.026,148.403,285.23,151.198,281.782,151.198z"/>
<g>
	<path style="fill:#3B566A;" d="M85.527,443.426H41.82v-37.463c0-3.448,2.795-6.244,6.244-6.244h31.22
		c3.448,0,6.244,2.795,6.244,6.244V443.426z"/>
	<path style="fill:#3B566A;" d="M426.473,443.426h-43.707v-37.463c0-3.448,2.796-6.244,6.244-6.244h31.22
		c3.448,0,6.244,2.795,6.244,6.244V443.426z"/>
</g>
<g>
	<rect x="41.822" y="433.308" style="fill:#D4D5DB;" width="43.707" height="10.115"/>
	<rect x="382.764" y="433.308" style="fill:#D4D5DB;" width="43.707" height="10.115"/>
</g>
<path style="fill:#EBEFF2;" d="M359.009,302.076v166.212H109.315V302.076c0-10.366,8.367-18.732,18.732-18.732h212.23
	C350.58,283.344,359.009,291.71,359.009,302.076z"/>
<path style="fill:#4EBD9E;" d="M359.009,302.076v25.849H109.315v-25.849c0-10.366,8.367-18.732,18.732-18.732h212.23
	C350.58,283.344,359.009,291.71,359.009,302.076z"/>
<g>
	<path style="fill:#D4D5DB;" d="M334.065,354.881H134.259c-3.451,0-6.244,2.796-6.244,6.244c0,3.448,2.793,6.244,6.244,6.244
		h199.806c3.451,0,6.244-2.796,6.244-6.244C340.309,357.676,337.516,354.881,334.065,354.881z"/>
	<path style="fill:#D4D5DB;" d="M334.065,391.123H134.259c-3.451,0-6.244,2.796-6.244,6.244c0,3.448,2.793,6.244,6.244,6.244
		h199.806c3.451,0,6.244-2.796,6.244-6.244C340.309,393.919,337.516,391.123,334.065,391.123z"/>
	<path style="fill:#D4D5DB;" d="M334.065,427.365H134.259c-3.451,0-6.244,2.796-6.244,6.244c0,3.448,2.793,6.244,6.244,6.244
		h199.806c3.451,0,6.244-2.796,6.244-6.244C340.309,430.161,337.516,427.365,334.065,427.365z"/>
</g>
<g>
</g>
<g>
</g>
<g>
</g>
<g>
</g>
<g>
</g>
<g>
</g>
<g>
</g>
<g>
</g>
<g>
</g>
<g>
</g>
<g>
</g>
<g>
</g>
<g>
</g>
<g>
</g>
<g>
</g>
</svg>
